<svg viewBox="0 0 16.0002 16" xmlns="http://www.w3.org/2000/svg" xmlns:xlink="http://www.w3.org/1999/xlink" width="16.000244" height="16.000000" fill="none" customFrame="#000000">
	<path id="↳ Icon Color" d="M0 4.69387e-05C0 4.69387e-05 0.000130355 3.32787 0.000130355 5.12004L0.000130355 10.88C0.000130355 12.6722 0 16 0 16C0 16 3.52474 16 5.12013 16L10.8801 16C12.6723 16 16.0001 16 16.0001 16C16.0001 16 16.0001 13.9387 16.0001 10.88L16.0001 5.12004C16.0001 2.06138 16.0001 0 16.0001 0C16.0001 0 12.6723 4.071e-05 10.8801 4.071e-05L5.12013 4.071e-05C2.06142 4.071e-05 0 4.69387e-05 0 4.69387e-05ZM12.9658 5.76573C13.2782 5.45331 13.2782 4.94677 12.9658 4.63436C12.6534 4.32194 12.1469 4.32194 11.8344 4.63436L6.40013 10.0687L4.16582 7.83436C3.8534 7.52194 3.34686 7.52194 3.03445 7.83436C2.72203 8.14678 2.72203 8.65331 3.03445 8.96573L5.83444 11.7657C6.14686 12.0781 6.6534 12.0781 6.96582 11.7657L12.9658 5.76573Z" fill="rgb(33,66,136)" fill-rule="evenodd" />
</svg>
